<svg xmlns="http://www.w3.org/2000/svg" xmlns:xlink="http://www.w3.org/1999/xlink" viewBox="0 0 257.21 342.9"><defs><style>.cls-1{fill:url(#linear-gradient);}</style><linearGradient id="linear-gradient" x1="-776.32" y1="573.74" x2="-776.32" y2="562.37" gradientTransform="matrix(22.61, 0, 0, -30.14, 17681.92, 17294.65)" gradientUnits="userSpaceOnUse"><stop offset="0" stop-color="#ef4849"/><stop offset="0.69" stop-color="#f7931e"/><stop offset="1" stop-color="#f7931e"/></linearGradient></defs><g id="Layer_2" data-name="Layer 2"><g id="Layer_1-2" data-name="Layer 1"><path id="ic_whatshot_24px" data-name="ic whatshot 24px" class="cls-1" d="M152.72,0a345.53,345.53,0,0,1,11.9,77.16c0,33.12-21.71,60-54.82,60A58.53,58.53,0,0,1,51.42,78.46c0-.43,0-.86,0-1.3l.48-5.79A221.34,221.34,0,0,0,0,214.29a128.61,128.61,0,1,0,257.21,0A275.11,275.11,0,0,0,152.72,0ZM123.94,294.63a51.05,51.05,0,0,1-51.76-50.34v-.14c0-26,16.88-44.36,45.17-50.15a124,124,0,0,0,74.27-41.48,224.3,224.3,0,0,1,9.49,64.95A77.18,77.18,0,0,1,124,294.67Z"/></g></g></svg>