<svg xmlns="http://www.w3.org/2000/svg" xmlns:xlink="http://www.w3.org/1999/xlink" viewBox="0 0 38.77 32.3"><defs><style>.cls-1{fill:url(#linear-gradient);}</style><linearGradient id="linear-gradient" x1="-181.33" y1="593.57" x2="-181.33" y2="591.96" gradientTransform="matrix(24.01, 0, 0, -20, 4372.72, 11872.49)" gradientUnits="userSpaceOnUse"><stop offset="0" stop-color="#8ebd3f"/><stop offset="0" stop-color="#ef4849"/><stop offset="1" stop-color="#f7931e"/></linearGradient></defs><g id="Layer_2" data-name="Layer 2"><g id="Layer_1-2" data-name="Layer 1"><path id="Shape" class="cls-1" d="M29.07,32.3H9.69a4.84,4.84,0,0,1-4.85-4.84v-9l-2.08,2.1A1.62,1.62,0,0,1,.47,18.24L5.32,13.4,18.24.48a1.6,1.6,0,0,1,2.28,0h0L33.45,13.4l4.85,4.84A1.62,1.62,0,1,1,36,20.54l-2.09-2.11v9A4.84,4.84,0,0,1,29.07,32.3ZM19.38,19.38a4.84,4.84,0,0,1,4.84,4.85h0v4.84h4.85a1.62,1.62,0,0,0,1.62-1.61V15.2L19.38,3.9,8.07,15.2V27.46a1.62,1.62,0,0,0,1.62,1.61h4.84V24.23a4.85,4.85,0,0,1,4.85-4.85Zm0,3.23a1.63,1.63,0,0,0-1.62,1.62v4.84H21V24.23a1.62,1.62,0,0,0-1.61-1.62Z"/></g></g></svg>