<svg xmlns="http://www.w3.org/2000/svg" viewBox="0 0 83.46 83.35"><defs><style>.cls-1{fill:none;stroke:#fbfcfd;stroke-linecap:round;stroke-linejoin:round;stroke-width:10px;}</style></defs><g id="Layer_2" data-name="Layer 2"><g id="Layer_1-2" data-name="Layer 1"><g id="Plus"><path id="Line_186" data-name="Line 186" class="cls-1" d="M55.18,41.64H28.29"/><path id="Path" class="cls-1" d="M58.91,5H24.55A18.9,18.9,0,0,0,5,23.23a21.32,21.32,0,0,0,.06,2.26V57.86A18.88,18.88,0,0,0,22.25,78.28a22.15,22.15,0,0,0,2.3.06H58.91A18.89,18.89,0,0,0,78.45,60.16a19.57,19.57,0,0,0-.06-2.3V25.49A18.87,18.87,0,0,0,61.21,5.07,17.67,17.67,0,0,0,58.91,5Z"/></g></g></g></svg>