<svg xmlns="http://www.w3.org/2000/svg" viewBox="0 0 63.38 79.63"><defs><style>.cls-1,.cls-2{fill:none;}.cls-2{stroke:#e9ae2d;stroke-linecap:round;stroke-width:4px;}.cls-3{fill:#e9ae2d;}</style></defs><g id="Layer_2" data-name="Layer 2"><g id="Layer_1-2" data-name="Layer 1"><g id="Rectangle_100" data-name="Rectangle 100"><rect class="cls-1" x="0.5" y="9.13" width="55" height="70" rx="10"/><path class="cls-2" d="M53,31.65V69.13a7.5,7.5,0,0,1-7.5,7.5h-35A7.5,7.5,0,0,1,3,69.13v-50a7.5,7.5,0,0,1,7.5-7.5H30.56"/></g><path id="Path_158" data-name="Path 158" class="cls-3" d="M34.22,18.22l.36,10.55,10.54.36L61.87,12.41a5.16,5.16,0,0,0,0-7.28h0l-3.7-3.64a5.15,5.15,0,0,0-7.25,0ZM54.1,5.74h0a1.62,1.62,0,0,1,.44,0h.74a.76.76,0,0,1,.26.16l1.83,1.82a1.29,1.29,0,0,1,0,1.82h0L43.12,23.8l-3.5-.13-.26-3.4L53.62,6a1.13,1.13,0,0,1,.43-.29Z"/></g></g></svg>