<svg xmlns="http://www.w3.org/2000/svg" viewBox="0 0 89.77 89.65"><defs><style>.cls-1{fill:none;stroke:#fbfcfd;stroke-linecap:round;stroke-linejoin:round;stroke-width:10px;}</style></defs><g id="Layer_2" data-name="Layer 2"><g id="Layer_1-2" data-name="Layer 1"><g id="Plus"><path id="Line_185" data-name="Line 185" class="cls-1" d="M44.88,30.2V59.36"/><path id="Line_186" data-name="Line 186" class="cls-1" d="M59.48,44.78H30.29"/><path id="Path" class="cls-1" d="M63.54,5H26.23A20.51,20.51,0,0,0,5,24.79a20.21,20.21,0,0,0,.06,2.46V62.4A20.49,20.49,0,0,0,23.73,84.57a20.87,20.87,0,0,0,2.5.06H63.54A20.49,20.49,0,0,0,84.75,64.89a20.7,20.7,0,0,0-.06-2.49V27.25A20.48,20.48,0,0,0,66,5.08,18.83,18.83,0,0,0,63.54,5Z"/></g></g></g></svg>