<svg xmlns="http://www.w3.org/2000/svg" viewBox="0 0 330.71 70.14"><defs><style>.cls-1{fill:#e8be43;}</style></defs><g id="Layer_2" data-name="Layer 2"><g id="Layer_1-2" data-name="Layer 1"><path class="cls-1" d="M0,23.58V.49H28.83a18.4,18.4,0,0,1,8.38,1.9,21.83,21.83,0,0,1,6.62,5.06,23.54,23.54,0,0,1,4.39,7.11,21.69,21.69,0,0,1,1.56,8c0,.33,0,.65,0,1H40.89c0-.32,0-.65,0-1a15.23,15.23,0,0,0-1.75-7.35,13.82,13.82,0,0,0-4.58-5.12,11.15,11.15,0,0,0-6.23-1.85H8.77v15.3ZM8.77,37H45a21.14,21.14,0,0,1-4.86,4.62,18.36,18.36,0,0,1-10.71,3.17H8.77V69.65H0V37.07Z"/><path class="cls-1" d="M58.06,23.58q.3-.85.63-1.71a36.57,36.57,0,0,1,6.92-11.2A33.45,33.45,0,0,1,76,2.87,29.44,29.44,0,0,1,88.94,0a28.82,28.82,0,0,1,13.24,3,32.6,32.6,0,0,1,10.23,8.09A37.9,37.9,0,0,1,119,22.41c.14.39.28.78.41,1.17h-9.16a28.06,28.06,0,0,0-4.36-7.36,23.09,23.09,0,0,0-7.5-6,22.41,22.41,0,0,0-19.53.1,22.91,22.91,0,0,0-7.45,6.18,29.17,29.17,0,0,0-4.13,7.12Zm7.07,13.49a31.27,31.27,0,0,0,1.64,8.18A28.27,28.27,0,0,0,71.6,54a23.29,23.29,0,0,0,7.5,6,21.13,21.13,0,0,0,9.74,2.24,20.74,20.74,0,0,0,9.93-2.34,23.4,23.4,0,0,0,7.46-6.24,28.38,28.38,0,0,0,4.67-8.76,31.28,31.28,0,0,0,1.54-7.85h8.89a36.3,36.3,0,0,1-9.26,22.5,32.77,32.77,0,0,1-10.37,7.74,31.26,31.26,0,0,1-26.21-.1,32,32,0,0,1-10.27-7.94,37.13,37.13,0,0,1-9-22.2Z"/><path class="cls-1" d="M142.32,37h20.16a10.4,10.4,0,0,0,6.28-2A13,13,0,0,0,173,29.81a17.12,17.12,0,0,0,1.51-7.21,15.23,15.23,0,0,0-1.75-7.35,13.82,13.82,0,0,0-4.58-5.12,11.19,11.19,0,0,0-6.24-1.85H142.32v15.3h-8.77V.49h28.83a18.43,18.43,0,0,1,8.38,1.9,21.83,21.83,0,0,1,6.62,5.06,23.54,23.54,0,0,1,4.39,7.11,21.89,21.89,0,0,1,1.56,8,23.91,23.91,0,0,1-2.54,10.76,21.48,21.48,0,0,1-7.11,8.28A18.36,18.36,0,0,1,163,44.81H142.32V69.65h-8.77V37Z"/><path class="cls-1" d="M194.23,69.65V.49H203V69.65Z"/><path class="cls-1" d="M214.4,62.83,259,8.28H215.27V.49h54V7.31L225.41,61.86h43.83v7.79H214.4Z"/><path class="cls-1" d="M275.86,62.83,320.48,8.28H276.74V.49h54V7.31L286.87,61.86h43.84v7.79H275.86Z"/></g></g></svg>