<svg xmlns="http://www.w3.org/2000/svg" xmlns:xlink="http://www.w3.org/1999/xlink" viewBox="0 0 32.72 32.72"><defs><style>.cls-1{fill:url(#linear-gradient);}</style><linearGradient id="linear-gradient" x1="-245.51" y1="555.78" x2="-245.51" y2="554.15" gradientTransform="matrix(20, 0, 0, -20, 4926.47, 11115.64)" gradientUnits="userSpaceOnUse"><stop offset="0" stop-color="#8ebd3f"/><stop offset="0" stop-color="#ef4849"/><stop offset="1" stop-color="#f7931e"/></linearGradient></defs><g id="Layer_2" data-name="Layer 2"><g id="Layer_1-2" data-name="Layer 1"><path id="Shape" class="cls-1" d="M0,16.36A16.36,16.36,0,1,1,16.36,32.72,16.37,16.37,0,0,1,0,16.36ZM16.36,30.21a13.83,13.83,0,0,0,9.26-3.56,7.41,7.41,0,0,0-2.39-1.26l-.63-.22L21.94,25c-2.34-.79-3.39-1.43-3.84-2.93,0-.12-.07-.25-.1-.37a4,4,0,0,1,.23-2.35,3.6,3.6,0,0,1,1-1.33A4.78,4.78,0,0,0,21,14.13a4.77,4.77,0,0,0-4.61-4.9A4.71,4.71,0,0,0,11.74,14s0,.07,0,.11a4.74,4.74,0,0,0,1.68,3.81,3.71,3.71,0,0,1,1,1.17,3.67,3.67,0,0,1,.33,2.58,2.86,2.86,0,0,1-.07.28c-.4,1.48-1.43,2.11-3.67,2.87l-.75.26-.74.26A7.07,7.07,0,0,0,7.1,26.65,13.83,13.83,0,0,0,16.36,30.21Zm7.13-16.08a7.25,7.25,0,0,1-2.61,5.75,1,1,0,0,0-.33.42,1.59,1.59,0,0,0-.07.89.29.29,0,0,0,0,.09c.13.43.68.76,2.25,1.29l.64.22.69.23a9.65,9.65,0,0,1,3.25,1.78,13.85,13.85,0,1,0-21.95,0A9.61,9.61,0,0,1,8.61,23l.8-.28.74-.25c1.45-.49,2-.82,2.09-1.25,0,0,0,0,0-.06a1.31,1.31,0,0,0-.1-.87,1.6,1.6,0,0,0-.4-.46,7.27,7.27,0,0,1-2.52-5.7,7.22,7.22,0,0,1,7-7.42h.12a7.27,7.27,0,0,1,7.14,7.4Z"/></g></g></svg>