<svg xmlns="http://www.w3.org/2000/svg" xmlns:xlink="http://www.w3.org/1999/xlink" viewBox="0 0 420 840"><defs><style>.cls-1{fill:url(#linear-gradient);}</style><linearGradient id="linear-gradient" x1="210" y1="840" x2="210" gradientUnits="userSpaceOnUse"><stop offset="0" stop-color="#153961"/><stop offset="0.44" stop-color="#153961"/><stop offset="1" stop-color="#0a1627"/></linearGradient></defs><g id="Layer_2" data-name="Layer 2"><g id="Layer_1-2" data-name="Layer 1"><path class="cls-1" d="M365.34,449.28A54.67,54.67,0,0,0,420,504V800a40,40,0,0,1-40,40H40A40,40,0,0,1,0,800V504A54.67,54.67,0,0,0,0,394.61V40A40,40,0,0,1,40,0H380a40,40,0,0,1,40,40V394.61A54.67,54.67,0,0,0,365.34,449.28Z"/></g></g></svg>